<svg xmlns="http://www.w3.org/2000/svg" viewBox="0 0 99 98.91">
  <g fill="none" stroke="#30d5c8" stroke-width="6" stroke-linejoin="round">
    <circle cx="49.5" cy="49.46" r="19.47" stroke-miterlimit="10"/>
    <path d="M35.27 16c12.51-5.02-.42-13 14.23-13"/>
    <path d="M63.74 16c-12.51-5.02.42-13-14.23-13"/>
    <path d="M15.56 36.05c5.3-12.4-9.49-8.9.87-19.26"/>
    <path d="M35.69 15.91c-12.4 5.3-8.9-9.49-19.26.87"/>
    <path d="M16 63.42c-5.02-12.51-13 .42-13-14.23"/>
    <path d="M16 34.95c-5.02 12.51-13-.42-13 14.23"/>
    <path d="M35.99 83.07c-12.4-5.3-8.9 9.49-19.26-.87"/>
    <path d="M15.86 62.94c5.3 12.4-9.49 8.9.87 19.26"/>
    <path d="M64.02 82.91c-12.51 5.02.42 13-14.23 13"/>
    <path d="M35.55 82.91c12.51 5.02-.42 13 14.23 13"/>
    <path d="M83.13 63.17c-5.3 12.4 9.49 8.9-.87 19.26"/>
    <path d="M63 83.3c12.4-5.3 8.9 9.49 19.26-.87"/>
    <path d="M83 34.95c5.02 12.51 13-.42 13 14.23"/>
    <path d="M83 63.42c5.02-12.51 13 .42 13-14.23"/>
    <path d="M63.37 15.91c12.4 5.3 8.9-9.49 19.26.87"/>
    <path d="M83.5 36.05c-5.3-12.4 9.49-8.9-.87-19.26"/>
  </g>
</svg>
