<svg xmlns="http://www.w3.org/2000/svg" viewBox="0 0 92.75 98.78">
  <g fill="none" stroke="#30d5c8" stroke-linecap="round" stroke-linejoin="round" stroke-width="6">
    <path d="M73.03,86.16c0,5.32-4.31,9.63-9.63,9.63H12.63c-5.32,0-9.63-4.31-9.63-9.63V26.63c0-5.32,4.31-9.63,9.63-9.63h3.06"/>
    <path d="M61.21,17.01h2.19c5.32,0,9.63,4.03,9.63,9.01v13.65"/>
    <path d="M27.51,10.88c0-5.25,4.38-7.88,10.94-7.88s10.94,2.63,10.94,7.88c5.26.12,11.71-1.32,11.82,6.13,0,3.94-2.19,6.13-6.13,6.13H21.82c-3.94,0-6.13-2.19-6.13-6.13.09-7.43,6.55-6.02,11.82-6.13Z"/>
    <path d="M13.94,50.18h29.27"/>
    <path d="M13.92,64.81h29.76"/>
    <path d="M13.92,79.43h32.61"/>
    <path d="M14.38,35.56h37.64"/>
  </g>

  <path d="M70.11,55.2c0-5.69,4.81-9.63,10.5-9.63s9.63,3.94,9.63,9.63-2.19,7.88-5.69,10.94l-13.57,12.69-13.57-12.69c-3.5-3.06-5.69-6.56-5.69-10.94s3.94-9.63,9.63-9.63,8.75,3.94,8.75,9.63Z"
        fill="none" stroke="#e5534b" stroke-linecap="round" stroke-linejoin="round" stroke-width="5"/>
</svg>
