<svg xmlns="http://www.w3.org/2000/svg" viewBox="0 0 98.41 98.41" fill="none" stroke-linecap="round" stroke-linejoin="round">
  <path fill="#30d5c8" d="M49.36 8.52c22.36.08 40.53 18.3 40.53 40.68S71.72 89.8 49.36 89.88c-12.7-.54-23.25-5.12-30.51-13.26-6.5-7.28-10.08-17.02-10.07-27.42 0-10.4 3.58-20.14 10.08-27.42 7.26-8.14 17.8-12.72 30.5-13.26M49.21.52c-64.56 2.55-64.58 94.8 0 97.37 26.89 0 48.68-21.8 48.68-48.68S76.09.52 49.21.52Z"/>
  <g stroke="#30d5c8" stroke-width="8">
    <path d="M35.05 36.11c7.93-20.37 34.65-9.1 28.29 5.71-1.06 2.3-2.4 3.99-8.54 8.45-4.51 3.27-6.34 7.74-6.09 11.19"/>
    <path d="M49.68 72.55c0 .62-.94.62-.95 0 0-.62.94-.62.95 0"/>
  </g>
</svg>
