<svg xmlns="http://www.w3.org/2000/svg" viewBox="0 0 97.37 97.37" fill="none" stroke-linecap="round" stroke-linejoin="round">
  <g transform="translate(-18.78 -18.78)">
    <path fill="#30d5c8" d="M67.49 26.78c22.36.08 40.53 18.3 40.53 40.68S89.85 108.06 67.49 108.14c-12.7-.54-23.25-5.12-30.51-13.26-6.5-7.28-10.08-17.02-10.07-27.42 0-10.4 3.58-20.14 10.08-27.42 7.26-8.14 17.8-12.72 30.5-13.26M67.33 18.78c-64.56 2.55-64.58 94.8 0 97.37 26.89 0 48.68-21.8 48.68-48.68S94.21 18.78 67.33 18.78Z"/>
    <g stroke="#30d5c8" stroke-width="8">
      <path d="M84.5 56.14c0 9.41-7.63 17.04-17.04 17.04-22.6-.9-22.59-33.18 0-34.07 9.41 0 17.04 7.63 17.04 17.04Z"/>
      <path d="M37.08 97.96c12.59-19.21 46.28-20.16 59.65-1.08"/>
    </g>
  </g>
</svg>
