<svg xmlns="http://www.w3.org/2000/svg" version="1.1" xmlns:xlink="http://www.w3.org/1999/xlink" width="1024" height="1024"><svg xmlns="http://www.w3.org/2000/svg" version="1.1" xmlns:xlink="http://www.w3.org/1999/xlink" width="1024" height="1024"><svg xmlns="http://www.w3.org/2000/svg" viewBox="0 0 1024 1024"><g fill="none" stroke="#30d5c8" stroke-linecap="round" stroke-linejoin="round"><circle cx="500" cy="505.8" r="469.1" stroke-width="32"></circle><path d="M345.8,449.1c44.2-11.4,95.7-17.9,150.7-17.9,57.8,0,111.8,7.2,157.4,19.7" stroke-width="16"></path><path d="M418.6,432.2c8.1-101.4,32.9-79.7,74.5-71.7,34.4,6.7,77.7-54.9,90,71.8" stroke-width="16"></path><path d="M416.2,466c-.3-5.8-.5-11.8-.5-17.8" stroke-width="16"></path><path d="M573.6,527.5c-14.1,46.2-41.8,69.8-74.5,70.2-35.7.4-61.4-28.8-74.5-72.1" stroke-width="16"></path><path d="M583.5,448.3c0,6.1-.2,12.1-.5,17.8" stroke-width="16"></path><circle cx="463.3" cy="482.2" r="1.9" stroke-width="16"></circle><circle cx="536.3" cy="484" r="1.9" stroke-width="16"></circle><path d="M528.1,536.7c-4.7,6.3-15.8,10.6-28.6,10.6s-25-4.8-29.3-11.5" stroke-width="14"></path><path d="M412.3,465.4c-12.4-5.2-16.7-.4-13,26.2,1.6,11.4,12.3,26,22.1,31.4" stroke-linejoin="bevel" stroke-width="16"></path><path d="M584.2,465.4c12.4-5.2,16.7-.4,13,26.2-1.6,11.4-12.3,26-22.1,31.4" stroke-linejoin="bevel" stroke-width="16"></path><path d="M555.8,576.8c1.1,6,1.7,12.2,1.7,18.6,0,42.4-26.1,76.8-58.4,76.8s-58.4-34.4-58.4-76.8.8-14.2,2.2-20.8" stroke-linejoin="bevel" stroke-width="16"></path><path d="M661,688.2c-3.4-31.1-29.9-78.3-103.5-114.8" stroke-linejoin="bevel" stroke-width="16"></path><line x1="410.2" y1="691.3" x2="410" y2="589.4" stroke-linejoin="bevel" stroke-width="16"></line><line x1="586.9" y1="684.2" x2="586.8" y2="596.4" stroke-linejoin="bevel" stroke-width="16"></line><path d="M657.7,826.5c1.7,41.5-66.1,40.2-154.7,41.2-86.9,1-161,2.5-160.4-41.2.7-47.7,69.9-84.2,155.9-85,88.7-.8,157.3,36.9,159.2,85Z" stroke-linejoin="bevel" stroke-width="16"></path><path d="M515,810.8s-4.2-27.3-54.2-63.6" stroke-linejoin="bevel" stroke-width="16"></path><path d="M581.8,807.5s-11.3-36.3-54.2-64.6" stroke-linejoin="bevel" stroke-width="16"></path><path d="M444.3,807.5s-11.4-34.1-44.1-46.7" stroke-linejoin="bevel" stroke-width="16"></path><path d="M699.9,638.7c0-24.5,38.2-44.3,85.3-44.3s85.3,19.8,85.3,44.3-38.2,44.3-85.3,44.3-19.1-.9-27.9-2.4l19.9-33.4-77.2-4.7v64.1h57.4v45.5c8.7,1.6,18.1,2.4,27.9,2.4,42.9,0,78.4-16.4,84.4-37.9" stroke-width="16"></path><line x1="870.4" y1="702.7" x2="870.4" y2="637.2" stroke-width="16"></line><line x1="757.3" y1="680.5" x2="757.3" y2="706.5" stroke-width="16"></line><path d="M98.3,611.5h222.5s-9.9,100.8-35.8,100.8H127.7s-23.3-6.3-29.4-100.8Z" stroke-width="16"></path><line x1="104.4" y1="661.9" x2="309.8" y2="661.9" stroke-width="16"></line><line x1="269.7" y1="611.5" x2="253.2" y2="712.3" stroke-width="16"></line><line x1="209.5" y1="615.1" x2="209.5" y2="712.3" stroke-width="16"></line><line x1="154.3" y1="611.5" x2="165.6" y2="712.3" stroke-width="16"></line><path d="M112.4,604.3c0,4.7-32.4-114.5,66.9-62.1" stroke-width="16"></path><path d="M250.9,562.3c-2.3-25.8-17-48.8-71.6-20" stroke-width="16"></path><path d="M179.3,539.2s-2.8-59.8,43.8-66.9" stroke-width="16"></path><path d="M202.6,607.5s-8.9-57.5,58.9-35.8" stroke-width="16"></path><path d="M320.4,607.5s8.9-57.5-58.9-35.8" stroke-width="16"></path><path d="M264.1,566.7s7.5-29.8,34.4-42.1" stroke-width="16"></path><path d="M178.6,512.5s-51.1-13.1-44.3-34.4c3.2-10.2,52.3,37.1,51.8,28.1" stroke-width="12"></path><path d="M344.3,449.1c44.2-11.4,95.7-17.9,150.7-17.9,57.8,0,111.8,7.2,157.4,19.7" stroke-width="16"></path><path d="M417.1,432.2c8.1-101.4,32.9-79.7,74.5-71.7,34.4,6.7,77.7-54.9,90,71.8" stroke-width="16"></path><path d="M414.8,466c-.3-5.8-.5-11.8-.5-17.8" stroke-width="16"></path><path d="M572.2,527.5c-14.1,46.2-41.8,69.8-74.5,70.2-35.7.4-61.4-28.8-74.5-72.1" stroke-width="16"></path><path d="M582.1,448.3c0,6.1-.2,12.1-.5,17.8" stroke-width="16"></path><circle cx="461.9" cy="482.2" r="1.9" stroke-width="16"></circle><circle cx="534.9" cy="484" r="1.9" stroke-width="16"></circle><path d="M526.7,536.7c-4.7,6.3-15.8,10.6-28.6,10.6s-25-4.8-29.3-11.5" stroke-width="14"></path><path d="M410.8,465.4c-12.4-5.2-16.7-.4-13,26.2,1.6,11.4,12.3,26,22.1,31.4" stroke-linejoin="bevel" stroke-width="16"></path><path d="M582.8,465.4c12.4-5.2,16.7-.4,13,26.2-1.6,11.4-12.3,26-22.1,31.4" stroke-linejoin="bevel" stroke-width="16"></path><path d="M554.4,576.8c1.1,6,1.7,12.2,1.7,18.6,0,42.4-26.1,76.8-58.4,76.8s-58.4-34.4-58.4-76.8.8-14.2,2.2-20.8" stroke-linejoin="bevel" stroke-width="16"></path><path d="M656.3,826.5c1.7,41.5-66.1,40.2-154.7,41.2-86.9,1-161,2.5-160.4-41.2.7-47.7,69.9-84.2,155.9-85,88.7-.8,157.3,36.9,159.2,85Z" stroke-linejoin="bevel" stroke-width="16"></path><path d="M513.5,810.8s-4.2-27.3-54.2-63.6" stroke-linejoin="bevel" stroke-width="16"></path><path d="M580.4,807.5s-11.3-36.3-54.2-64.6" stroke-linejoin="bevel" stroke-width="16"></path><path d="M442.9,807.5s-11.4-34.1-44.1-46.7" stroke-linejoin="bevel" stroke-width="16"></path><path d="M698.5,638.7c0-24.5,38.2-44.3,85.3-44.3s85.3,19.8,85.3,44.3-38.2,44.3-85.3,44.3-19.1-.9-27.9-2.4l19.9-33.4-77.2-4.7v64.1h57.4v45.5c8.7,1.6,18.1,2.4,27.9,2.4,42.9,0,78.4-16.4,84.4-37.9" stroke-width="16"></path><line x1="869" y1="702.7" x2="869" y2="637.2" stroke-width="16"></line><line x1="755.9" y1="680.5" x2="755.9" y2="706.5" stroke-width="16"></line><path d="M96.9,611.5h222.5s-9.9,100.8-35.8,100.8H126.2s-23.3-6.3-29.4-100.8Z" stroke-width="16"></path><line x1="103" y1="661.9" x2="308.3" y2="661.9" stroke-width="16"></line><line x1="268.3" y1="611.5" x2="251.8" y2="712.3" stroke-width="16"></line><line x1="208.1" y1="615.1" x2="208.1" y2="712.3" stroke-width="16"></line><line x1="152.9" y1="611.5" x2="164.2" y2="712.3" stroke-width="16"></line><path d="M111,604.3c0,4.7-32.4-114.5,66.9-62.1" stroke-width="16"></path><path d="M249.4,562.3c-2.3-25.8-17-48.8-71.6-20" stroke-width="16"></path><path d="M177.9,539.2s-2.8-59.8,43.8-66.9" stroke-width="16"></path><path d="M201.2,607.5s-8.9-57.5,58.9-35.8" stroke-width="16"></path><path d="M319,607.5s8.9-57.5-58.9-35.8" stroke-width="16"></path><path d="M262.7,566.7s7.5-29.8,34.4-42.1" stroke-width="16"></path><path d="M177.2,512.5s-51.1-13.1-44.3-34.4c3.2-10.2,52.3,37.1,51.8,28.1" stroke-width="12"></path><path d="M344.3,452.8c44.2-11.4,95.7-17.9,150.7-17.9,57.8,0,111.8,7.2,157.4,19.7" stroke-width="16"></path><line x1="869.5" y1="716.6" x2="869" y2="646.7" stroke-width="16"></line><polygon points="273.9 136.2 723.4 136.2 787.4 264.2 212.3 264.2 273.9 136.2" stroke-width="16"></polygon><line x1="327.7" y1="264.2" x2="347.6" y2="136.2" stroke-width="16"></line><line x1="443.1" y1="264.2" x2="450.2" y2="136.2" stroke-width="16"></line><line x1="559.6" y1="264.2" x2="549.1" y2="136.2" stroke-width="16"></line><line x1="670.9" y1="264.2" x2="652" y2="136.2" stroke-width="16"></line><path d="M327.7,269.5c0,31.9-25.8,57.7-57.7,57.7s-57.7-25.8-57.7-57.7" stroke-width="16"></path><path d="M443.1,267.8c0,31.9-25.8,57.7-57.7,57.7s-57.7-25.8-57.7-57.7" stroke-width="16"></path><path d="M558.9,267.8c0,31.9-25.8,57.7-57.7,57.7s-57.7-25.8-57.7-57.7" stroke-width="16"></path><path d="M671.4,269.5c0,31.9-25.8,57.7-57.7,57.7s-57.7-25.8-57.7-57.7" stroke-width="16"></path><path d="M786.3,267.8c0,31.9-25.8,57.7-57.7,57.7s-57.7-25.8-57.7-57.7" stroke-width="16"></path><path d="M339,684.6c3.4-31.1,29.9-78.3,103.5-114.8" stroke-linejoin="bevel" stroke-width="16"></path><line x1="728.6" y1="325.5" x2="728.6" y2="580.3" stroke-width="16"></line><line x1="270" y1="327.2" x2="270" y2="516.3" stroke-width="16"></line><line x1="870.4" y1="693.5" x2="923.7" y2="693.5" stroke-width="16"></line><line x1="305" y1="693.5" x2="695.7" y2="693.5" stroke-width="16"></line><line x1="78.3" y1="693.5" x2="107.4" y2="693.5" stroke-width="16"></line></g></svg></svg><style>@media (prefers-color-scheme: light) { :root { filter: none; } }
@media (prefers-color-scheme: dark) { :root { filter: none; } }
</style></svg>